<svg xmlns="http://www.w3.org/2000/svg" viewBox="0 0 20 60" width="20" height="60" shape-rendering="crispEdges">
  <!-- Snow cap -->
  <rect x="1" y="0" width="18" height="1" fill="#ffffff"/>
  <rect x="0" y="1" width="20" height="1" fill="#e8f0f8"/>
  <rect x="0" y="2" width="20" height="1" fill="#d0e4f0"/>
  <rect x="2" y="0" width="2" height="1" fill="#f0f8ff"/>
  <rect x="8" y="0" width="3" height="1" fill="#f0f8ff"/>
  <rect x="15" y="0" width="3" height="1" fill="#f0f8ff"/>
  <!-- Snow drips -->
  <rect x="0" y="3" width="1" height="1" fill="#d0e4f0"/>
  <rect x="19" y="3" width="1" height="1" fill="#c8dce8"/>
  <!-- Stone body -->
  <rect x="0" y="3" width="20" height="55" fill="#5a5a6e"/>
  <rect x="1" y="3" width="18" height="1" fill="#6e6e82"/>
  <!-- Block 1 lighter patches -->
  <rect x="2" y="5" width="3" height="2" fill="#686880"/>
  <rect x="8" y="4" width="4" height="2" fill="#686880"/>
  <rect x="14" y="6" width="3" height="2" fill="#686880"/>
  <rect x="4" y="9" width="4" height="2" fill="#686880"/>
  <rect x="11" y="10" width="3" height="2" fill="#686880"/>
  <rect x="1" y="13" width="2" height="2" fill="#686880"/>
  <rect x="15" y="13" width="3" height="2" fill="#686880"/>
  <!-- Block 2 lighter patches -->
  <rect x="3" y="22" width="3" height="2" fill="#686880"/>
  <rect x="10" y="24" width="4" height="2" fill="#686880"/>
  <rect x="15" y="22" width="3" height="2" fill="#686880"/>
  <rect x="2" y="28" width="4" height="2" fill="#686880"/>
  <rect x="12" y="29" width="3" height="2" fill="#686880"/>
  <rect x="5" y="33" width="3" height="2" fill="#686880"/>
  <rect x="14" y="34" width="4" height="2" fill="#686880"/>
  <!-- Block 3 lighter patches -->
  <rect x="2" y="42" width="4" height="2" fill="#686880"/>
  <rect x="10" y="43" width="3" height="2" fill="#686880"/>
  <rect x="15" y="41" width="3" height="2" fill="#686880"/>
  <rect x="4" y="48" width="3" height="2" fill="#686880"/>
  <rect x="12" y="49" width="4" height="2" fill="#686880"/>
  <rect x="1" y="52" width="3" height="2" fill="#686880"/>
  <rect x="15" y="53" width="3" height="2" fill="#686880"/>
  <!-- Cracks -->
  <rect x="6" y="6" width="1" height="3" fill="#484858"/>
  <rect x="13" y="4" width="1" height="2" fill="#484858"/>
  <rect x="10" y="8" width="1" height="3" fill="#484858"/>
  <rect x="7" y="22" width="1" height="3" fill="#484858"/>
  <rect x="15" y="26" width="1" height="3" fill="#484858"/>
  <rect x="3" y="31" width="1" height="2" fill="#484858"/>
  <rect x="8" y="43" width="1" height="3" fill="#484858"/>
  <rect x="14" y="46" width="1" height="2" fill="#484858"/>
  <rect x="6" y="50" width="1" height="3" fill="#484858"/>
  <!-- Mortar lines (horizontal) -->
  <rect x="0" y="9" width="9" height="1" fill="#4a4a5a"/>
  <rect x="11" y="9" width="9" height="1" fill="#4a4a5a"/>
  <rect x="0" y="19" width="20" height="1" fill="#4a4a5a"/>
  <rect x="0" y="27" width="9" height="1" fill="#4a4a5a"/>
  <rect x="11" y="27" width="9" height="1" fill="#4a4a5a"/>
  <rect x="0" y="39" width="20" height="1" fill="#4a4a5a"/>
  <rect x="0" y="47" width="9" height="1" fill="#4a4a5a"/>
  <rect x="11" y="47" width="9" height="1" fill="#4a4a5a"/>
  <!-- Mortar lines (vertical) -->
  <rect x="9" y="3" width="1" height="7" fill="#4a4a5a"/>
  <rect x="5" y="9" width="1" height="11" fill="#4a4a5a"/>
  <rect x="14" y="9" width="1" height="11" fill="#4a4a5a"/>
  <rect x="9" y="19" width="1" height="9" fill="#4a4a5a"/>
  <rect x="5" y="27" width="1" height="13" fill="#4a4a5a"/>
  <rect x="14" y="27" width="1" height="13" fill="#4a4a5a"/>
  <rect x="9" y="39" width="1" height="9" fill="#4a4a5a"/>
  <rect x="5" y="47" width="1" height="11" fill="#4a4a5a"/>
  <rect x="14" y="47" width="1" height="11" fill="#4a4a5a"/>
  <!-- Bottom -->
  <rect x="0" y="57" width="20" height="1" fill="#3e3e50"/>
  <rect x="0" y="58" width="20" height="2" fill="#2e2e40"/>
  <!-- Side edges -->
  <rect x="0" y="3" width="1" height="55" fill="#4e4e62"/>
  <rect x="19" y="3" width="1" height="55" fill="#4e4e62"/>
  <!-- Snow highlights -->
  <rect x="3" y="1" width="1" height="1" fill="#ffffff"/>
  <rect x="10" y="1" width="1" height="1" fill="#ffffff"/>
  <rect x="16" y="1" width="1" height="1" fill="#ffffff"/>
</svg>
