<svg xmlns="http://www.w3.org/2000/svg" viewBox="0 0 16 16" width="64" height="64" shape-rendering="crispEdges">
<!-- Boss3: Frost Giant - walk 4 (bounce down) -->
<rect x="4" y="1" width="1" height="2" fill="#a0d8f0"/>
<rect x="11" y="1" width="1" height="2" fill="#a0d8f0"/>
<rect x="3" y="1" width="1" height="1" fill="#c0e8ff"/>
<rect x="12" y="1" width="1" height="1" fill="#c0e8ff"/>
<rect x="5" y="2" width="6" height="4" fill="#2a4a6a"/>
<rect x="5" y="2" width="6" height="1" fill="#345878"/>
<rect x="6" y="3" width="1" height="1" fill="#ff4444"/>
<rect x="9" y="3" width="1" height="1" fill="#ff4444"/>
<rect x="6" y="5" width="4" height="1" fill="#1a3a5a"/>
<rect x="7" y="5" width="1" height="1" fill="#ffffff"/>
<rect x="9" y="5" width="1" height="1" fill="#ffffff"/>
<rect x="3" y="6" width="10" height="5" fill="#2a4a6a"/>
<rect x="2" y="7" width="1" height="3" fill="#1e3e5e"/>
<rect x="13" y="7" width="1" height="3" fill="#1e3e5e"/>
<rect x="6" y="7" width="1" height="1" fill="#4a7a9a"/>
<rect x="9" y="7" width="1" height="1" fill="#4a7a9a"/>
<!-- Arms -->
<rect x="0" y="6" width="2" height="5" fill="#2a4a6a"/>
<rect x="14" y="6" width="2" height="5" fill="#2a4a6a"/>
<!-- Legs wide -->
<rect x="3" y="11" width="3" height="3" fill="#1e3e5e"/>
<rect x="10" y="11" width="3" height="3" fill="#1e3e5e"/>
<rect x="2" y="14" width="4" height="1" fill="#1a3a5a"/>
<rect x="10" y="14" width="4" height="1" fill="#1a3a5a"/>
</svg>
