<svg xmlns="http://www.w3.org/2000/svg" viewBox="0 0 16 16" width="64" height="64" shape-rendering="crispEdges">
<!-- Boss8: Death Chill - walk 3 -->
<!-- Crown -->
<rect x="4" y="0" width="8" height="2" fill="#8a6aaa"/>
<rect x="4" y="0" width="1" height="1" fill="#aa88cc"/>
<rect x="6" y="0" width="1" height="1" fill="#aa88cc"/>
<rect x="9" y="0" width="1" height="1" fill="#aa88cc"/>
<rect x="11" y="0" width="1" height="1" fill="#aa88cc"/>
<rect x="5" y="0" width="1" height="1" fill="#ff2222"/>
<rect x="7" y="0" width="2" height="1" fill="#ff2222"/>
<rect x="10" y="0" width="1" height="1" fill="#ff2222"/>
<!-- Skull -->
<rect x="5" y="2" width="6" height="4" fill="#2a1a2a"/>
<rect x="5" y="2" width="6" height="1" fill="#3a2a3a"/>
<rect x="6" y="3" width="2" height="1" fill="#9933ff"/>
<rect x="9" y="3" width="1" height="1" fill="#9933ff"/>
<rect x="7" y="4" width="2" height="1" fill="#1a0a1a"/>
<rect x="6" y="5" width="4" height="1" fill="#1a0a1a"/>
<rect x="6" y="5" width="1" height="1" fill="#cccccc"/>
<rect x="8" y="5" width="1" height="1" fill="#cccccc"/>
<!-- Body -->
<rect x="3" y="6" width="10" height="5" fill="#1a0a2a"/>
<rect x="6" y="7" width="4" height="2" fill="#3a1a4a"/>
<rect x="7" y="7" width="2" height="1" fill="#6633aa"/>
<!-- Right arm forward -->
<rect x="13" y="6" width="3" height="4" fill="#2a1a2a"/>
<rect x="14" y="10" width="2" height="1" fill="#cccccc"/>
<!-- Left arm back -->
<rect x="0" y="8" width="2" height="4" fill="#2a1a2a"/>
<rect x="0" y="12" width="2" height="1" fill="#cccccc"/>
<!-- Robe sweeping right -->
<rect x="2" y="11" width="12" height="2" fill="#1a0a2a"/>
<rect x="3" y="13" width="12" height="1" fill="#3a1a4a"/>
<rect x="3" y="14" width="4" height="1" fill="#0a0020"/>
<rect x="9" y="14" width="5" height="1" fill="#0a0020"/>
<!-- Aura -->
<rect x="15" y="5" width="1" height="2" fill="#3a1a4a" opacity="0.5"/>
<rect x="0" y="7" width="1" height="2" fill="#3a1a4a" opacity="0.4"/>
</svg>
