<svg xmlns="http://www.w3.org/2000/svg" viewBox="0 0 20 80" width="20" height="80" shape-rendering="crispEdges">
  <!-- Outer border -->
  <rect x="0" y="0" width="20" height="80" fill="#4090c0"/>
  <!-- Main ice body -->
  <rect x="1" y="1" width="18" height="78" fill="#60b8e8"/>
  <!-- Inner lighter area -->
  <rect x="2" y="2" width="16" height="76" fill="#78cef8"/>
  <!-- Highlight (top-left) -->
  <rect x="2" y="2" width="6" height="1" fill="#a0e8ff"/>
  <rect x="2" y="3" width="4" height="1" fill="#a0e8ff"/>
  <rect x="2" y="4" width="2" height="1" fill="#a0e8ff"/>
  <rect x="2" y="2" width="1" height="4" fill="#a0e8ff"/>
  <rect x="3" y="2" width="1" height="2" fill="#b8f0ff"/>
  <rect x="4" y="2" width="1" height="1" fill="#d0f8ff"/>
  <!-- Seam lines at y=20, 40, 60 -->
  <rect x="1" y="19" width="18" height="2" fill="#68c0e8"/>
  <rect x="2" y="20" width="16" height="1" fill="#70c8f0"/>
  <rect x="1" y="39" width="18" height="2" fill="#68c0e8"/>
  <rect x="2" y="40" width="16" height="1" fill="#70c8f0"/>
  <rect x="1" y="59" width="18" height="2" fill="#68c0e8"/>
  <rect x="2" y="60" width="16" height="1" fill="#70c8f0"/>
  <!-- Block 1 veins -->
  <rect x="5" y="6" width="4" height="1" fill="#90daf0"/>
  <rect x="11" y="4" width="3" height="1" fill="#90daf0"/>
  <rect x="8" y="10" width="5" height="1" fill="#90daf0"/>
  <rect x="3" y="13" width="3" height="1" fill="#90daf0"/>
  <rect x="13" y="12" width="4" height="1" fill="#90daf0"/>
  <rect x="6" y="15" width="5" height="1" fill="#90daf0"/>
  <!-- Block 2 veins -->
  <rect x="4" y="24" width="4" height="1" fill="#90daf0"/>
  <rect x="12" y="23" width="3" height="1" fill="#90daf0"/>
  <rect x="7" y="28" width="5" height="1" fill="#90daf0"/>
  <rect x="3" y="31" width="4" height="1" fill="#90daf0"/>
  <rect x="13" y="33" width="3" height="1" fill="#90daf0"/>
  <rect x="5" y="35" width="6" height="1" fill="#90daf0"/>
  <!-- Block 3 veins -->
  <rect x="5" y="44" width="4" height="1" fill="#90daf0"/>
  <rect x="11" y="43" width="3" height="1" fill="#90daf0"/>
  <rect x="7" y="48" width="5" height="1" fill="#90daf0"/>
  <rect x="3" y="51" width="4" height="1" fill="#90daf0"/>
  <rect x="13" y="52" width="3" height="1" fill="#90daf0"/>
  <rect x="6" y="55" width="5" height="1" fill="#90daf0"/>
  <!-- Block 4 veins -->
  <rect x="4" y="64" width="4" height="1" fill="#90daf0"/>
  <rect x="12" y="63" width="3" height="1" fill="#90daf0"/>
  <rect x="7" y="68" width="5" height="1" fill="#90daf0"/>
  <rect x="3" y="71" width="4" height="1" fill="#90daf0"/>
  <rect x="13" y="73" width="3" height="1" fill="#90daf0"/>
  <rect x="5" y="75" width="6" height="1" fill="#90daf0"/>
  <!-- Diagonal cracks -->
  <rect x="10" y="5" width="1" height="1" fill="#88d0e8"/>
  <rect x="11" y="6" width="1" height="1" fill="#88d0e8"/>
  <rect x="12" y="7" width="1" height="1" fill="#88d0e8"/>
  <rect x="5" y="25" width="1" height="1" fill="#88d0e8"/>
  <rect x="6" y="26" width="1" height="1" fill="#88d0e8"/>
  <rect x="10" y="45" width="1" height="1" fill="#88d0e8"/>
  <rect x="11" y="46" width="1" height="1" fill="#88d0e8"/>
  <rect x="5" y="65" width="1" height="1" fill="#88d0e8"/>
  <rect x="6" y="66" width="1" height="1" fill="#88d0e8"/>
  <!-- Bottom-right shadow -->
  <rect x="15" y="75" width="3" height="3" fill="#58a8d0"/>
  <rect x="16" y="74" width="2" height="1" fill="#58a8d0"/>
  <rect x="14" y="76" width="1" height="2" fill="#58a8d0"/>
  <!-- Edges -->
  <rect x="1" y="78" width="18" height="1" fill="#4898c0"/>
  <rect x="18" y="1" width="1" height="78" fill="#4898c0"/>
  <!-- Sparkles -->
  <rect x="7" y="4" width="1" height="1" fill="#c0f0ff"/>
  <rect x="14" y="9" width="1" height="1" fill="#c0f0ff"/>
  <rect x="4" y="14" width="1" height="1" fill="#c0f0ff"/>
  <rect x="10" y="25" width="1" height="1" fill="#c0f0ff"/>
  <rect x="4" y="30" width="1" height="1" fill="#c0f0ff"/>
  <rect x="14" y="35" width="1" height="1" fill="#c0f0ff"/>
  <rect x="8" y="44" width="1" height="1" fill="#c0f0ff"/>
  <rect x="4" y="50" width="1" height="1" fill="#c0f0ff"/>
  <rect x="14" y="55" width="1" height="1" fill="#c0f0ff"/>
  <rect x="8" y="64" width="1" height="1" fill="#c0f0ff"/>
  <rect x="4" y="70" width="1" height="1" fill="#c0f0ff"/>
  <rect x="12" y="76" width="1" height="1" fill="#c0f0ff"/>
</svg>
