<svg xmlns="http://www.w3.org/2000/svg" width="64" height="64" viewBox="0 0 16 16" shape-rendering="crispEdges">
  <!-- Material - Snow pile for gathering resources -->
  <!-- Main snow mound -->
  <rect x="6" y="5" width="4" height="1" fill="#FFFFFF"/>
  <rect x="4" y="6" width="8" height="1" fill="#EEEEFF"/>
  <rect x="3" y="7" width="10" height="1" fill="#FFFFFF"/>
  <rect x="2" y="8" width="12" height="1" fill="#DDEEFF"/>
  <rect x="2" y="9" width="12" height="1" fill="#EEEEFF"/>
  <rect x="1" y="10" width="14" height="1" fill="#DDEEFF"/>
  <rect x="1" y="11" width="14" height="1" fill="#CCDDEE"/>
  <rect x="2" y="12" width="12" height="1" fill="#BBCCDD"/>
  <!-- Snow sparkles -->
  <rect x="5" y="6" width="1" height="1" fill="#FFFFFF"/>
  <rect x="9" y="7" width="1" height="1" fill="#FFFFFF"/>
  <rect x="4" y="9" width="1" height="1" fill="#FFFFFF"/>
  <rect x="11" y="10" width="1" height="1" fill="#FFFFFF"/>
  <!-- Blue ice undertones -->
  <rect x="6" y="10" width="1" height="1" fill="#AABBFF"/>
  <rect x="10" y="9" width="1" height="1" fill="#AABBFF"/>
  <!-- Small snowflake on top -->
  <rect x="7" y="4" width="2" height="1" fill="#DDEEFF"/>
  <rect x="8" y="3" width="1" height="1" fill="#EEEEFF"/>
</svg>
