<svg xmlns="http://www.w3.org/2000/svg" width="64" height="64" viewBox="0 0 16 16" shape-rendering="crispEdges">
  <!-- Snow Zombie 5 - Abomination - Walk 03 (right leg forward) -->
  <rect x="5" y="1" width="6" height="1" fill="#667755"/>
  <rect x="5" y="2" width="6" height="2" fill="#778866"/>
  <rect x="5" y="4" width="6" height="1" fill="#667755"/>
  <rect x="6" y="2" width="2" height="1" fill="#FF8844"/>
  <rect x="9" y="2" width="2" height="1" fill="#FF8844"/>
  <rect x="6" y="4" width="4" height="1" fill="#334433"/>
  <rect x="7" y="5" width="1" height="1" fill="#CCDDFF"/>
  <rect x="9" y="5" width="1" height="1" fill="#CCDDFF"/>
  <rect x="3" y="5" width="10" height="1" fill="#667755"/>
  <rect x="2" y="6" width="12" height="1" fill="#778866"/>
  <rect x="2" y="7" width="12" height="1" fill="#667755"/>
  <rect x="3" y="8" width="10" height="1" fill="#778866"/>
  <rect x="3" y="9" width="10" height="1" fill="#556644"/>
  <rect x="4" y="6" width="1" height="1" fill="#88DDFF"/>
  <rect x="11" y="7" width="1" height="1" fill="#88DDFF"/>
  <rect x="6" y="8" width="1" height="1" fill="#AAEEFF"/>
  <rect x="9" y="6" width="1" height="1" fill="#AAEEFF"/>
  <rect x="1" y="7" width="1" height="2" fill="#778866"/>
  <rect x="0" y="8" width="1" height="1" fill="#667755"/>
  <rect x="14" y="5" width="1" height="2" fill="#778866"/>
  <rect x="15" y="6" width="1" height="1" fill="#667755"/>
  <rect x="9" y="10" width="3" height="1" fill="#556644"/>
  <rect x="10" y="11" width="3" height="1" fill="#556644"/>
  <rect x="4" y="10" width="3" height="2" fill="#556644"/>
  <rect x="3" y="12" width="4" height="1" fill="#445533"/>
  <rect x="10" y="12" width="4" height="1" fill="#445533"/>
  <rect x="3" y="13" width="4" height="1" fill="#334422"/>
  <rect x="11" y="13" width="4" height="1" fill="#334422"/>
</svg>
